<svg width="360" height="280" viewBox="0 0 360 280" fill="none" xmlns="http://www.w3.org/2000/svg">
  <rect width="360" height="280" rx="28" fill="#F8FAFC"/>
  <rect x="24" y="24" width="312" height="232" rx="22" fill="white"/>
  <rect x="44" y="46" width="120" height="16" rx="8" fill="#E2E8F0"/>
  <rect x="44" y="80" width="272" height="52" rx="18" fill="#EFF6FF"/>
  <circle cx="73" cy="106" r="12" fill="#2563EB"/>
  <rect x="96" y="94" width="120" height="10" rx="5" fill="#0F172A" fill-opacity="0.92"/>
  <rect x="96" y="112" width="165" height="8" rx="4" fill="#64748B" fill-opacity="0.8"/>
  <rect x="44" y="146" width="272" height="52" rx="18" fill="#F0FDF4"/>
  <circle cx="73" cy="172" r="12" fill="#16A34A"/>
  <rect x="96" y="160" width="124" height="10" rx="5" fill="#0F172A" fill-opacity="0.92"/>
  <rect x="96" y="178" width="152" height="8" rx="4" fill="#64748B" fill-opacity="0.8"/>
  <rect x="44" y="214" width="110" height="18" rx="9" fill="#0F172A"/>
  <rect x="166" y="214" width="150" height="18" rx="9" fill="#E2E8F0"/>
</svg>
